<?xml version="1.0" encoding="utf-8"?>
<!-- Generator: Adobe Illustrator 21.0.0, SVG Export Plug-In . SVG Version: 6.00 Build 0)  -->
<svg version="1.1" id="图层_1" xmlns="http://www.w3.org/2000/svg" xmlns:xlink="http://www.w3.org/1999/xlink" x="0px" y="0px"
	 viewBox="0 0 128 128" style="enable-background:new 0 0 128 128;" xml:space="preserve">
<path d="M101.1,23.3c1.6,4.4,1.7,11.8,0.2,17.1c-5.1,18.3-8.9,36.9-13.6,55.3c-1.8,6.9-5.1,8.9-12,7.5c-4.2-0.8-8.3-1.8-12.5-2.6
	c-0.4-0.1-0.9,0.3-2.3,0.7c-1.3,5.2-2.7,10.9-4.2,16.7c-1.2,4.5-3.6,8.4-8.9,7.1c-5.2-1.3-5.8-5.7-4.7-10.4
	c1.4-5.7,2.8-11.5,4.6-18.3c-5.2-1.3-9.7-2.3-14.2-3.6c-6.9-2-8.9-5.2-7.2-12.2c4.5-18.5,8.9-36.9,13.8-55.3
	C43.9,10.9,58,1.4,72.3,2.9C78,21.3,82.1,24.4,101.1,23.3z"/>
</svg>
